<svg width="66" height="87" viewBox="0 0 66 87" fill="none" xmlns="http://www.w3.org/2000/svg">
    <g opacity="0.4">
        <path d="M9.09961 70.2147V16.6787" stroke="#B2B2B2" stroke-width="2" stroke-linecap="round" stroke-linejoin="round"/>
        <path d="M57.6726 79.9282V82.3572C57.6726 84.3692 56.0416 86.0002 54.0296 86.0002H12.7436C10.7326 86.0002 9.10156 84.3692 9.10156 82.3572V79.9282" stroke="#B2B2B2" stroke-width="2" stroke-linecap="round" stroke-linejoin="round"/>
        <path d="M57.6719 16.8923V70.2143" stroke="#B2B2B2" stroke-width="2" stroke-linecap="round" stroke-linejoin="round"/>
        <path d="M9.09961 6.85776V4.64276C9.09961 2.63076 10.7306 0.999756 12.7426 0.999756H54.0286C56.0396 0.999756 57.6706 2.63076 57.6706 4.64276V7.28576" stroke="#B2B2B2" stroke-width="2" stroke-linecap="round" stroke-linejoin="round"/>
        <path fill-rule="evenodd" clip-rule="evenodd" d="M34.3848 79.9292C34.3848 79.3772 33.9378 78.9292 33.3848 78.9292C32.8328 78.9292 32.3848 79.3772 32.3848 79.9292C32.3848 80.4812 32.8328 80.9292 33.3848 80.9292C33.9378 80.9292 34.3848 80.4812 34.3848 79.9292Z" stroke="#B2B2B2" stroke-width="2" stroke-linecap="round" stroke-linejoin="round"/>
        <path d="M16.3855 75.0715H1.81445V60.4995" stroke="#1A1A1A" stroke-width="2" stroke-linecap="round" stroke-linejoin="round"/>
        <path d="M1.81445 26.5V11.929H16.3855" stroke="#1A1A1A" stroke-width="2" stroke-linecap="round" stroke-linejoin="round"/>
        <path d="M50.3848 11.9287H64.9558V26.4997" stroke="#1A1A1A" stroke-width="2" stroke-linecap="round" stroke-linejoin="round"/>
        <path d="M64.9577 60.5V75.072H50.3867" stroke="#1A1A1A" stroke-width="2" stroke-linecap="round" stroke-linejoin="round"/>
        <path d="M33.3848 33.5V53.5" stroke="#1A1A1A" stroke-width="2" stroke-linecap="round" stroke-linejoin="round"/>
        <path d="M43.3848 43.5H23.3848" stroke="#1A1A1A" stroke-width="2" stroke-linecap="round" stroke-linejoin="round"/>
    </g>
</svg>
