<svg width="93" height="105" viewBox="0 0 93 105" fill="none" xmlns="http://www.w3.org/2000/svg">
    <g opacity="0.4">
        <path fill-rule="evenodd" clip-rule="evenodd" d="M46.8066 33.2112C35.7576 33.2112 26.8066 42.1632 26.8066 53.2112C26.8066 59.5232 29.7266 65.1552 34.2936 68.8112C35.0706 64.4592 38.0546 60.8912 42.0456 59.2832L46.8146 64.9712L51.5666 59.2672C55.5586 60.8832 58.5416 64.4592 59.3266 68.8032C63.8866 65.1472 66.8066 59.5232 66.8066 53.2112C66.8066 42.1632 57.8546 33.2112 46.8066 33.2112Z" stroke="#1A1A1A" stroke-width="2" stroke-linecap="round" stroke-linejoin="round"/>
        <path fill-rule="evenodd" clip-rule="evenodd" d="M53.3027 48.6912C53.3027 45.1012 50.3927 42.1912 46.8027 42.1912C43.2117 42.1912 40.3027 45.1012 40.3027 48.6912C40.3027 52.2812 43.2117 55.1912 46.8027 55.1912C50.3927 55.1912 53.3027 52.2812 53.3027 48.6912Z" stroke="#1A1A1A" stroke-width="2" stroke-linecap="round" stroke-linejoin="round"/>
        <path d="M14.8359 77.8171L40.7489 92.7781" stroke="#B2B2B2" stroke-width="2" stroke-linecap="round" stroke-linejoin="round"/>
        <path d="M8.79102 37.4177V67.3387" stroke="#B2B2B2" stroke-width="2" stroke-linecap="round" stroke-linejoin="round"/>
        <path d="M84.8145 37.4177V67.3387" stroke="#B2B2B2" stroke-width="2" stroke-linecap="round" stroke-linejoin="round"/>
        <path d="M40.7549 11.9788L14.8379 26.9418" stroke="#B2B2B2" stroke-width="2" stroke-linecap="round" stroke-linejoin="round"/>
        <path d="M78.7666 26.942L52.8516 11.98" stroke="#B2B2B2" stroke-width="2" stroke-linecap="round" stroke-linejoin="round"/>
        <path d="M52.8555 92.7786L78.7675 77.8186" stroke="#B2B2B2" stroke-width="2" stroke-linecap="round" stroke-linejoin="round"/>
        <path fill-rule="evenodd" clip-rule="evenodd" d="M53.7905 8.487C53.7905 4.628 50.6615 1.5 46.8025 1.5C42.9425 1.5 39.8145 4.628 39.8145 8.487C39.8145 12.346 42.9425 15.475 46.8025 15.475C50.6615 15.475 53.7905 12.346 53.7905 8.487Z" stroke="#B2B2B2" stroke-width="2" stroke-linecap="round" stroke-linejoin="round"/>
        <path fill-rule="evenodd" clip-rule="evenodd" d="M12.2841 24.383C8.94213 22.454 4.66913 23.599 2.74013 26.94C0.810135 30.282 1.95613 34.555 5.29813 36.484C8.63813 38.413 12.9121 37.268 14.8411 33.927C16.7701 30.585 15.6251 26.312 12.2841 24.383Z" stroke="#B2B2B2" stroke-width="2" stroke-linecap="round" stroke-linejoin="round"/>
        <path fill-rule="evenodd" clip-rule="evenodd" d="M5.29769 68.2761C1.95569 70.2051 0.81069 74.4781 2.73969 77.8191C4.66869 81.1611 8.94269 82.3061 12.2837 80.3771C15.6247 78.4471 16.7707 74.1751 14.8407 70.8331C12.9117 67.4921 8.63869 66.3471 5.29769 68.2761Z" stroke="#B2B2B2" stroke-width="2" stroke-linecap="round" stroke-linejoin="round"/>
        <path fill-rule="evenodd" clip-rule="evenodd" d="M39.8105 96.2732C39.8105 100.134 42.9415 103.264 46.8015 103.264C50.6635 103.264 53.7925 100.134 53.7925 96.2732C53.7925 92.4122 50.6635 89.2822 46.8015 89.2822C42.9415 89.2822 39.8105 92.4122 39.8105 96.2732Z" stroke="#B2B2B2" stroke-width="2" stroke-linecap="round" stroke-linejoin="round"/>
        <path fill-rule="evenodd" clip-rule="evenodd" d="M81.3226 80.3771C84.6646 82.3061 88.9366 81.1611 90.8666 77.8191C92.7956 74.4781 91.6506 70.2051 88.3086 68.2761C84.9676 66.3471 80.6946 67.4921 78.7646 70.8331C76.8366 74.1751 77.9806 78.4471 81.3226 80.3771Z" stroke="#B2B2B2" stroke-width="2" stroke-linecap="round" stroke-linejoin="round"/>
        <path fill-rule="evenodd" clip-rule="evenodd" d="M88.3091 36.484C91.6511 34.555 92.7951 30.282 90.8671 26.94C88.9371 23.599 84.6641 22.454 81.3231 24.383C77.9811 26.312 76.8361 30.585 78.7651 33.927C80.6951 37.268 84.9671 38.413 88.3091 36.484Z" stroke="#B2B2B2" stroke-width="2" stroke-linecap="round" stroke-linejoin="round"/>
    </g>
</svg>
