<svg width="92" height="93" viewBox="0 0 92 93" fill="none" xmlns="http://www.w3.org/2000/svg">
    <g opacity="0.4">
        <path d="M73.6424 58.2278C72.1234 61.8168 69.9274 65.0498 67.2124 67.7638C64.4974 70.4778 61.2664 72.6748 57.6764 74.1928C54.0874 75.7108 50.1414 76.5508 45.9994 76.5508C41.8574 76.5508 37.9114 75.7108 34.3224 74.1928C30.7334 72.6748 27.5004 70.4778 24.7864 67.7638C22.0724 65.0498 19.8744 61.8168 18.3574 58.2278" stroke="#231F20" stroke-width="2" stroke-linecap="round" stroke-linejoin="round"/>
        <path d="M18.3574 34.8733C19.8754 31.2843 22.0724 28.0523 24.7864 25.3373C27.5014 22.6233 30.7334 20.4263 34.3224 18.9083C37.9114 17.3903 41.8574 16.5503 46.0004 16.5503C50.1414 16.5503 54.0874 17.3903 57.6764 18.9083C61.2664 20.4263 64.4984 22.6233 67.2124 25.3373C69.9274 28.0523 72.1244 31.2843 73.6424 34.8733" stroke="#231F20" stroke-width="2" stroke-linecap="round" stroke-linejoin="round"/>
        <path d="M69.6426 72.0843L73.6426 58.2283" stroke="#231F20" stroke-width="2" stroke-linecap="round" stroke-linejoin="round"/>
        <path d="M22.3574 21.0171L18.3574 34.8731" stroke="#231F20" stroke-width="2" stroke-linecap="round" stroke-linejoin="round"/>
        <path d="M34.0586 46.622L41.6866 54.551L57.9426 38.551" stroke="#B2B2B2" stroke-width="2" stroke-linecap="round" stroke-linejoin="round"/>
        <path fill-rule="evenodd" clip-rule="evenodd" d="M91 46.5508C91 71.4038 70.853 91.5508 46 91.5508C21.146 91.5508 1 71.4038 1 46.5508C1 21.6978 21.146 1.55078 46 1.55078C70.853 1.55078 91 21.6978 91 46.5508Z" stroke="#B2B2B2" stroke-width="2" stroke-linecap="round" stroke-linejoin="round"/>
    </g>
</svg>
