<svg width="77" height="77" viewBox="0 0 77 77" fill="none" xmlns="http://www.w3.org/2000/svg">
    <path fill-rule="evenodd" clip-rule="evenodd" d="M16.3399 8.97322C16.3399 13.0568 13.0185 16.3676 8.91995 16.3676C4.82228 16.3676 1.5 13.0568 1.5 8.97322C1.5 4.88969 4.82228 1.57886 8.91995 1.57886C13.0185 1.57886 16.3399 4.88969 16.3399 8.97322Z" stroke="#1A1A1A" stroke-width="2" stroke-linecap="round" stroke-linejoin="round"/>
    <path fill-rule="evenodd" clip-rule="evenodd" d="M46.0196 8.97322C46.0196 13.0568 42.6982 16.3676 38.5996 16.3676C34.502 16.3676 31.1797 13.0568 31.1797 8.97322C31.1797 4.88969 34.502 1.57886 38.5996 1.57886C42.6982 1.57886 46.0196 4.88969 46.0196 8.97322Z" stroke="#1A1A1A" stroke-width="2" stroke-linecap="round" stroke-linejoin="round"/>
    <path fill-rule="evenodd" clip-rule="evenodd" d="M75.6993 8.97322C75.6993 13.0568 72.3779 16.3676 68.2793 16.3676C64.1817 16.3676 60.8594 13.0568 60.8594 8.97322C60.8594 4.88969 64.1817 1.57886 68.2793 1.57886C72.3779 1.57886 75.6993 4.88969 75.6993 8.97322Z" stroke="#1A1A1A" stroke-width="2" stroke-linecap="round" stroke-linejoin="round"/>
    <path fill-rule="evenodd" clip-rule="evenodd" d="M16.3399 38.5506C16.3399 42.6342 13.0185 45.945 8.91995 45.945C4.82228 45.945 1.5 42.6342 1.5 38.5506C1.5 34.4671 4.82228 31.1562 8.91995 31.1562C13.0185 31.1562 16.3399 34.4671 16.3399 38.5506Z" stroke="#1A1A1A" stroke-width="2" stroke-linecap="round" stroke-linejoin="round"/>
    <path fill-rule="evenodd" clip-rule="evenodd" d="M46.0196 38.5506C46.0196 42.6342 42.6982 45.945 38.5996 45.945C34.502 45.945 31.1797 42.6342 31.1797 38.5506C31.1797 34.4671 34.502 31.1562 38.5996 31.1562C42.6982 31.1562 46.0196 34.4671 46.0196 38.5506Z" stroke="#1A1A1A" stroke-width="2" stroke-linecap="round" stroke-linejoin="round"/>
    <path fill-rule="evenodd" clip-rule="evenodd" d="M75.6993 38.5506C75.6993 42.6342 72.3779 45.945 68.2793 45.945C64.1817 45.945 60.8594 42.6342 60.8594 38.5506C60.8594 34.4671 64.1817 31.1562 68.2793 31.1562C72.3779 31.1562 75.6993 34.4671 75.6993 38.5506Z" stroke="#1A1A1A" stroke-width="2" stroke-linecap="round" stroke-linejoin="round"/>
    <path fill-rule="evenodd" clip-rule="evenodd" d="M16.3399 68.128C16.3399 72.2115 13.0185 75.5224 8.91995 75.5224C4.82228 75.5224 1.5 72.2115 1.5 68.128C1.5 64.0445 4.82228 60.7336 8.91995 60.7336C13.0185 60.7336 16.3399 64.0445 16.3399 68.128Z" stroke="#1A1A1A" stroke-width="2" stroke-linecap="round" stroke-linejoin="round"/>
    <path fill-rule="evenodd" clip-rule="evenodd" d="M46.0196 68.128C46.0196 72.2115 42.6982 75.5224 38.5996 75.5224C34.502 75.5224 31.1797 72.2115 31.1797 68.128C31.1797 64.0445 34.502 60.7336 38.5996 60.7336C42.6982 60.7336 46.0196 64.0445 46.0196 68.128Z" stroke="#1A1A1A" stroke-width="2" stroke-linecap="round" stroke-linejoin="round"/>
    <path fill-rule="evenodd" clip-rule="evenodd" d="M75.6993 68.128C75.6993 72.2115 72.3779 75.5224 68.2793 75.5224C64.1817 75.5224 60.8594 72.2115 60.8594 68.128C60.8594 64.0445 64.1817 60.7336 68.2793 60.7336C72.3779 60.7336 75.6993 64.0445 75.6993 68.128Z" stroke="#1A1A1A" stroke-width="2" stroke-linecap="round" stroke-linejoin="round"/>
</svg>
