<svg width="169" height="59" viewBox="0 0 169 59" fill="none" xmlns="http://www.w3.org/2000/svg">
    <mask id="mask0" mask-type="alpha" maskUnits="userSpaceOnUse" x="23" y="49" width="10" height="10">
        <path fill-rule="evenodd" clip-rule="evenodd" d="M23.875 49.8215H32.3602V58.9067H23.875V49.8215Z" fill="white"/>
    </mask>
    <g mask="url(#mask0)">
        <path fill-rule="evenodd" clip-rule="evenodd" d="M32.3602 51.7864L30.8345 52.7062C30.3262 51.9492 29.5315 51.4984 28.5335 51.4984C26.9256 51.4984 25.7251 52.6618 25.7251 54.3639C25.7251 56.1217 26.9645 57.2295 28.5335 57.2295C29.5253 57.2295 30.32 56.7979 30.8539 56.0286L32.3027 57.0546C31.5019 58.1928 30.1803 58.9072 28.5468 58.9072C25.8012 58.9072 23.875 56.998 23.875 54.3639C23.875 51.7299 25.8012 49.8215 28.5468 49.8215C30.1927 49.8215 31.6291 50.5664 32.3602 51.7864Z" fill="#7F7F7F"/>
    </g>
    <path fill-rule="evenodd" clip-rule="evenodd" d="M38.5045 58.9068H36.6776V55.125L33.1484 49.3347H35.296L37.6011 53.3962L39.9061 49.3347H41.9881L38.5045 55.1326V58.9068Z" fill="#7F7F7F"/>
    <path fill-rule="evenodd" clip-rule="evenodd" d="M45.8316 57.2248L47.6634 57.2315C48.57 57.2315 49.1314 56.9852 49.1314 56.0686C49.1314 55.1662 48.57 54.9276 47.6634 54.9276H45.8316V57.2248ZM45.8316 53.2522H47.5055C48.3185 53.2522 48.9508 53.0544 48.9508 52.1245C48.9508 51.2278 48.3071 51.0177 47.499 51.0177H45.8316V53.2522ZM50.6532 51.9876C50.6532 52.9517 50.1438 53.7305 49.4651 54.0186C50.2146 54.3124 50.829 55.1329 50.829 56.1646C50.829 57.9969 49.7117 58.9068 47.7456 58.9068H44.1992V49.3347H47.5462C49.4537 49.3347 50.6532 50.1619 50.6532 51.9876Z" fill="#7F7F7F"/>
    <path fill-rule="evenodd" clip-rule="evenodd" d="M54.5117 58.9068V49.3347H61.0912V51.0844H56.28V53.205H60.8691V54.9557H56.28V57.1562H61.1415V58.9068H54.5117Z" fill="#7F7F7F"/>
    <path fill-rule="evenodd" clip-rule="evenodd" d="M66.495 53.4371H68.339C69.2552 53.4371 69.7224 53.0605 69.7224 52.2474C69.7224 51.4467 69.2318 51.0911 68.339 51.0911H66.495V53.4371ZM71.4414 52.2474C71.4414 53.8193 70.4836 54.8853 68.872 55.0707L71.4539 58.9068H69.4292L66.9863 55.0983H66.495V58.9068H64.8242V49.3347H68.3689C70.3695 49.3347 71.4414 50.414 71.4414 52.2474Z" fill="#7F7F7F"/>
    <path fill-rule="evenodd" clip-rule="evenodd" d="M77.5719 51.0391C76.5835 51.0391 75.8743 51.448 75.8743 52.149C75.8743 52.8225 76.6407 53.0412 77.7049 53.2194L78.2053 53.3049C79.7954 53.5695 81.0304 54.2898 81.0304 55.895C81.0304 57.9292 79.3073 58.9068 77.401 58.9068C76.0514 58.9068 74.6137 58.498 73.6641 57.6977L74.582 56.212C75.2286 56.7403 76.2611 57.2098 77.4072 57.2098C78.3956 57.2098 79.1488 56.8064 79.1488 56.0925C79.1488 55.4521 78.503 55.2206 77.268 55.0093L76.7042 54.9174C75.1396 54.6537 73.9997 53.9453 73.9997 52.2685C73.9997 50.339 75.6462 49.3347 77.534 49.3347C78.7823 49.3347 79.8015 49.6251 80.923 50.3188L80.0861 51.8247C79.384 51.3754 78.5409 51.0391 77.5719 51.0391Z" fill="#7F7F7F"/>
    <path fill-rule="evenodd" clip-rule="evenodd" d="M83.9766 58.9068V49.3347H90.556V51.0844H85.7448V53.205H90.3338V54.9557H85.7448V57.1561H90.6062V58.9068H83.9766Z" fill="#7F7F7F"/>
    <mask id="mask1" mask-type="alpha" maskUnits="userSpaceOnUse" x="93" y="49" width="9" height="10">
        <path fill-rule="evenodd" clip-rule="evenodd" d="M93.1758 49.8215H101.532V58.9067H93.1758V49.8215Z" fill="white"/>
    </mask>
    <g mask="url(#mask1)">
        <path fill-rule="evenodd" clip-rule="evenodd" d="M101.532 51.7864L100.03 52.7062C99.5292 51.9492 98.7466 51.4984 97.7637 51.4984C96.1801 51.4984 94.9979 52.6618 94.9979 54.3639C94.9979 56.1217 96.2184 57.2295 97.7637 57.2295C98.7405 57.2295 99.5231 56.7979 100.049 56.0286L101.476 57.0546C100.687 58.1928 99.3856 58.9072 97.7768 58.9072C95.0728 58.9072 93.1758 56.998 93.1758 54.3639C93.1758 51.7299 95.0728 49.8215 97.7768 49.8215C99.3978 49.8215 100.812 50.5664 101.532 51.7864Z" fill="#7F7F7F"/>
    </g>
    <path fill-rule="evenodd" clip-rule="evenodd" d="M108.284 58.9068C106.11 58.9068 104.602 57.583 104.602 54.984V49.3347H106.312V54.8896C106.312 56.4283 107.112 57.1131 108.284 57.1131C109.457 57.1131 110.258 56.4283 110.258 54.8896V49.3347H111.968V54.984C111.968 57.583 110.459 58.9068 108.284 58.9068Z" fill="#7F7F7F"/>
    <path fill-rule="evenodd" clip-rule="evenodd" d="M117.323 53.4371H119.167C120.083 53.4371 120.551 53.0605 120.551 52.2474C120.551 51.4467 120.06 51.0911 119.167 51.0911H117.323V53.4371ZM122.27 52.2474C122.27 53.8193 121.312 54.8853 119.7 55.0708L122.282 58.9068H120.257L117.814 55.0983H117.323V58.9068H115.652V49.3347H119.197C121.198 49.3347 122.27 50.414 122.27 52.2474Z" fill="#7F7F7F"/>
    <mask id="mask2" mask-type="alpha" maskUnits="userSpaceOnUse" x="0" y="0" width="169" height="59">
        <path fill-rule="evenodd" clip-rule="evenodd" d="M0 58.9068H168.69V0.737793H0V58.9068Z" fill="white"/>
    </mask>
    <g mask="url(#mask2)">
        <path fill-rule="evenodd" clip-rule="evenodd" d="M125.227 58.9068H126.7V49.3347H125.227V58.9068Z" fill="#7F7F7F"/>
        <path fill-rule="evenodd" clip-rule="evenodd" d="M134.227 51.1196V58.9068H132.436V51.1196H129.648V49.3347H137.015V51.1196H134.227Z" fill="#7F7F7F"/>
        <path fill-rule="evenodd" clip-rule="evenodd" d="M143.106 58.9068H141.279V55.125L137.75 49.3347H139.897L142.202 53.3962L144.507 49.3347H146.59L143.106 55.1326V58.9068Z" fill="#7F7F7F"/>
        <path fill-rule="evenodd" clip-rule="evenodd" d="M18.1608 15.706L16.1619 15.3811C11.9033 14.7104 8.84081 13.8868 8.84081 11.3482C8.84081 8.70536 11.6778 7.16328 15.6261 7.16328C19.09 7.16328 22.1445 8.1728 24.756 9.59152L29.0288 4.45182C24.5447 1.8368 20.4691 0.737793 15.4785 0.737793C7.92578 0.737793 1.33761 4.52132 1.33761 11.7913C1.33761 18.1194 5.89859 20.7831 12.1561 21.7787L14.4087 22.1254C19.3499 22.9203 21.9402 23.7926 21.9402 26.213C21.9402 28.8975 18.9211 30.4188 14.9719 30.4188C10.7274 30.4188 6.87726 28.9036 4.27983 27.1052L0 32.2658C3.80155 35.2744 9.54454 36.8173 14.9436 36.8173C22.5741 36.8173 29.4655 33.1302 29.4655 25.4658C29.4655 19.4139 24.5235 16.7016 18.1608 15.706Z" fill="#7F7F7F"/>
        <path fill-rule="evenodd" clip-rule="evenodd" d="M50.1668 18.7141L65.1698 1.47412H56.2236L44.3944 15.7902H41.0226V1.47412H33.8867V36.8173H41.0226V22.2775H44.3159L57.0467 36.8173H66.2988L50.1668 18.7141Z" fill="#7F7F7F"/>
        <path fill-rule="evenodd" clip-rule="evenodd" d="M129.264 1.47412V22.4157C129.264 28.2124 125.98 30.794 121.172 30.794C116.365 30.794 113.088 28.2124 113.088 22.4157V1.47412H106.074V22.7674C106.074 32.5654 112.259 37.5536 121.172 37.5536C130.091 37.5536 136.276 32.5654 136.276 22.7674V1.47412H129.264Z" fill="#7F7F7F"/>
        <path fill-rule="evenodd" clip-rule="evenodd" d="M139.961 1.47412V8.06089H150.829V36.8173H157.821V8.06089H168.69V1.47412H139.961Z" fill="#7F7F7F"/>
        <path fill-rule="evenodd" clip-rule="evenodd" d="M82.8753 29.8152C76.7753 29.8152 71.8349 24.8761 71.8349 18.7775C71.8349 12.686 76.7753 7.73899 82.8753 7.73899C88.9684 7.73899 93.9096 12.686 93.9096 18.7775C93.9096 24.8761 88.9684 29.8152 82.8753 29.8152ZM82.8753 0.737793C72.9035 0.737793 64.8242 8.8151 64.8242 18.7775C64.8242 28.74 72.9035 36.8173 82.8753 36.8173C92.8402 36.8173 100.919 28.74 100.919 18.7775C100.919 8.8151 92.8402 0.737793 82.8753 0.737793Z" fill="#7F7F7F"/>
    </g>
</svg>
