<svg width="470" height="360" viewBox="0 0 470 360" fill="none" xmlns="http://www.w3.org/2000/svg">
    <mask id="mask0" mask-type="alpha" maskUnits="userSpaceOnUse" x="0" y="0" width="470" height="360">
        <rect width="470" height="360" fill="white"/>
    </mask>
    <g mask="url(#mask0)">
        <path d="M386.085 237.868C374.335 252.601 360.407 265.621 344.629 276.52C328.475 287.679 310.92 296.207 292.479 301.946C274.036 307.685 254.706 310.634 235.001 310.634C215.292 310.634 195.96 307.685 177.516 301.946C159.071 296.207 141.516 287.679 125.361 276.52C109.583 265.621 95.6562 252.6 83.9062 237.866" stroke="#B2B2B2" stroke-width="2" stroke-linecap="round" stroke-linejoin="round"/>
        <path d="M83.9062 121.768C95.6562 107.034 109.583 94.0135 125.361 83.1145C141.515 71.9555 159.071 63.4275 177.515 57.6885C195.96 51.9495 215.292 49.0005 235.001 49.0005C254.706 49.0005 274.036 51.9495 292.478 57.6885C310.92 63.4275 328.474 71.9555 344.629 83.1145C360.407 94.0135 374.335 107.033 386.085 121.766" stroke="#B2B2B2" stroke-width="2" stroke-linecap="round" stroke-linejoin="round"/>
        <path fill-rule="evenodd" clip-rule="evenodd" d="M408.695 173.001C410.435 177.371 410.435 182.264 408.695 186.634C381.206 255.636 313.8 304.405 235.001 304.405C156.189 304.405 88.7823 255.634 61.3043 186.631C59.5653 182.263 59.5653 177.372 61.3043 173.003C88.7823 104 156.189 55.23 235.001 55.23C313.8 55.23 381.206 103.999 408.695 173.001Z" stroke="#1A1A1A" stroke-width="2" stroke-linecap="round" stroke-linejoin="round"/>
        <path fill-rule="evenodd" clip-rule="evenodd" d="M256.801 179.817C256.801 167.775 247.039 158.014 234.998 158.014C222.956 158.014 213.195 167.775 213.195 179.817C213.195 191.858 222.956 201.62 234.998 201.62C247.039 201.62 256.801 191.858 256.801 179.817Z" stroke="#1A1A1A" stroke-width="2" stroke-linecap="round" stroke-linejoin="round"/>
        <path fill-rule="evenodd" clip-rule="evenodd" d="M272.376 179.817C272.376 138.532 255.643 105.065 235 105.065C214.357 105.065 197.623 138.532 197.623 179.817C197.623 221.102 214.357 254.569 235 254.569C255.643 254.569 272.376 221.102 272.376 179.817Z" stroke="#B2B2B2" stroke-width="2" stroke-linecap="round" stroke-linejoin="round"/>
        <path fill-rule="evenodd" clip-rule="evenodd" d="M235 217.193C276.285 217.193 309.753 200.459 309.753 179.817C309.753 159.174 276.285 142.441 235 142.441C193.715 142.441 160.246 159.174 160.246 179.817C160.246 200.459 193.715 217.193 235 217.193Z" stroke="#B2B2B2" stroke-width="2" stroke-linecap="round" stroke-linejoin="round"/>
        <path fill-rule="evenodd" clip-rule="evenodd" d="M309.753 179.817C309.753 138.532 276.285 105.065 235 105.065C193.715 105.065 160.246 138.532 160.246 179.817C160.246 221.102 193.715 254.569 235 254.569C276.285 254.569 309.753 221.102 309.753 179.817Z" stroke="#1A1A1A" stroke-width="2" stroke-linecap="round" stroke-linejoin="round"/>
        <path d="M248.879 79.8174C261.865 81.6254 274.281 85.9494 285.467 92.4074C296.651 98.8644 306.605 107.456 314.663 117.797C322.723 128.14 328.887 140.233 332.493 153.693" stroke="#231F20" stroke-width="2" stroke-linecap="round" stroke-linejoin="round"/>
        <path d="M221.121 279.817C208.136 278.009 195.719 273.685 184.534 267.227C173.35 260.77 163.395 252.178 155.337 241.837C147.278 231.494 141.114 219.401 137.508 205.941" stroke="#231F20" stroke-width="2" stroke-linecap="round" stroke-linejoin="round"/>
        <path d="M298.918 86.4461L248.879 79.8171" stroke="#231F20" stroke-width="2" stroke-linecap="round" stroke-linejoin="round"/>
        <path d="M171.082 273.188L221.121 279.817" stroke="#231F20" stroke-width="2" stroke-linecap="round" stroke-linejoin="round"/>
        <path d="M317.922 235.728C321.517 230.408 324.611 224.723 327.142 218.741C329.672 212.759 331.637 206.48 332.969 199.97C334.301 193.46 335 186.72 335 179.817" stroke="#B2B2B2" stroke-width="2" stroke-linecap="round" stroke-linejoin="round"/>
        <path d="M152.079 123.906C148.484 129.226 145.389 134.911 142.859 140.893C140.329 146.875 138.364 153.154 137.032 159.664C135.7 166.174 135 172.913 135 179.817" stroke="#B2B2B2" stroke-width="2" stroke-linecap="round" stroke-linejoin="round"/>
    </g>
</svg>
