<svg width="25" height="25" viewBox="0 0 32 24" fill="none" xmlns="http://www.w3.org/2000/svg">
    <mask id="mask0" mask-type="alpha" maskUnits="userSpaceOnUse" x="0" y="0" width="32" height="24">
        <path fill-rule="evenodd" clip-rule="evenodd" d="M0 0.987793H31.875V23.4878H0V0.987793Z" fill="white"/>
    </mask>
    <g mask="url(#mask0)">
        <path fill-rule="evenodd" clip-rule="evenodd" d="M12.6776 16.9862V7.48939L21.0085 12.238L12.6776 16.9862ZM31.2089 4.50124C30.8423 3.11822 29.7622 2.02914 28.3908 1.65953C25.9051 0.987793 15.9375 0.987793 15.9375 0.987793C15.9375 0.987793 5.96986 0.987793 3.48415 1.65953C2.11281 2.02914 1.03268 3.11822 0.666115 4.50124C0 7.00781 0 12.2378 0 12.2378C0 12.2378 0 17.4676 0.666115 19.9743C1.03268 21.3574 2.11281 22.4464 3.48415 22.8162C5.96986 23.4878 15.9375 23.4878 15.9375 23.4878C15.9375 23.4878 25.9051 23.4878 28.3908 22.8162C29.7622 22.4464 30.8423 21.3574 31.2089 19.9743C31.875 17.4676 31.875 12.2378 31.875 12.2378C31.875 12.2378 31.875 7.00781 31.2089 4.50124Z" fill="#7F7F7F"/>
    </g>
</svg>
