<svg width="25" height="25" viewBox="0 0 25 26" fill="none" xmlns="http://www.w3.org/2000/svg">
    <path fill-rule="evenodd" clip-rule="evenodd" d="M23.6184 0.737793H1.38158C0.618554 0.737793 0 1.35635 0 2.11937V24.3562C0 25.1192 0.618554 25.7378 1.38158 25.7378H13.3553V16.0887H10.0877V12.286H13.3377V9.50972C13.3377 6.27727 15.307 4.51849 18.1886 4.51849C19.1675 4.5214 20.1455 4.57704 21.1184 4.68516V8.05797H19.1272C17.5614 8.05797 17.2588 8.7992 17.2588 9.8913V12.3036H21.0088L20.5219 16.0887H17.2588V25.7378H23.6184C24.3814 25.7378 25 25.1192 25 24.3562V2.11937C25 1.35635 24.3814 0.737793 23.6184 0.737793Z" fill="#7F7F7F"/>
</svg>
