<svg width="31" height="31" viewBox="0 0 31 31" fill="none" xmlns="http://www.w3.org/2000/svg">
    <path d="M20.8982 1.66141C26.5044 3.7505 30.4982 9.15214 30.4982 15.487C30.4982 23.6323 23.8944 30.2356 15.7491 30.2356C7.60327 30.2356 1 23.6323 1 15.487C1 7.34123 7.60327 0.737953 15.7491 0.737953C17.56 0.737953 19.2951 1.06413 20.8982 1.66141" stroke="#B2B2B2" stroke-linecap="round" stroke-linejoin="round"/>
    <path d="M15.7493 13.011V21.6215" stroke="#B2B2B2" stroke-linecap="round" stroke-linejoin="round"/>
    <path d="M13.5977 21.6217H17.9029" stroke="#B2B2B2" stroke-linecap="round" stroke-linejoin="round"/>
    <path d="M13.5977 13.011H15.75" stroke="#B2B2B2" stroke-linecap="round" stroke-linejoin="round"/>
    <path fill-rule="evenodd" clip-rule="evenodd" d="M16.1777 9.78251C16.1777 10.0203 15.9846 10.2129 15.7468 10.2129C15.509 10.2129 15.3164 10.0203 15.3164 9.78251C15.3164 9.5447 15.509 9.35215 15.7468 9.35215C15.9846 9.35215 16.1777 9.5447 16.1777 9.78251Z" fill="#B2B2B2" stroke="#B2B2B2" stroke-linecap="round" stroke-linejoin="round"/>
</svg>
