<svg width="25" height="25" viewBox="0 0 25 26" fill="none" xmlns="http://www.w3.org/2000/svg">
    <path fill-rule="evenodd" clip-rule="evenodd" d="M21.3035 22.0406H17.5958V16.2385C17.5958 14.8552 17.5722 13.0753 15.6694 13.0753C13.7396 13.0753 13.4451 14.5829 13.4451 16.1399V22.0406H9.74167V10.11H13.2958V11.7413H13.3472C13.8417 10.8031 15.0514 9.81418 16.8549 9.81418C20.6097 9.81418 21.3035 12.2843 21.3035 15.4975V22.0406ZM5.56111 8.48015C4.37014 8.48015 3.40972 7.51696 3.40972 6.32946C3.40972 5.14265 4.37014 4.17946 5.56111 4.17946C6.74722 4.17946 7.70972 5.14265 7.70972 6.32946C7.70972 7.51696 6.74722 8.48015 5.56111 8.48015ZM3.70417 22.0406H7.41597V10.11H3.70417V22.0406ZM23.15 0.737793H1.84375C0.826389 0.737793 0 1.54474 0 2.54057V23.9336C0 24.9295 0.826389 25.7378 1.84375 25.7378H23.15C24.1694 25.7378 24.9993 24.9295 24.9993 23.9336V2.54057C24.9993 1.54474 24.1694 0.737793 23.15 0.737793Z" fill="#7F7F7F"/>
</svg>
