<svg width="49" height="50" viewBox="0 0 49 50" fill="none" xmlns="http://www.w3.org/2000/svg">
    <g filter="url(#filter0_d)">
        <path d="M24.5 39.7377C34.165 39.7377 42 31.9027 42 22.2377C42 12.5727 34.165 4.73773 24.5 4.73773C14.835 4.73773 7 12.5727 7 22.2377C7 31.9027 14.835 39.7377 24.5 39.7377Z" fill="white"/>
        <path d="M24.5 39.7377C34.165 39.7377 42 31.9027 42 22.2377C42 12.5727 34.165 4.73773 24.5 4.73773C14.835 4.73773 7 12.5727 7 22.2377C7 31.9027 14.835 39.7377 24.5 39.7377Z" stroke="#22BF95" stroke-width="1.5"/>
    </g>
    <path d="M16 22.6751H33.384" stroke="#22BF95" stroke-width="1.5" stroke-linecap="round"/>
    <path d="M25.0626 13.7377V31.1218" stroke="#22BF95" stroke-width="1.5" stroke-linecap="round"/>
    <defs>
        <filter id="filter0_d" x="0.25" y="0.987732" width="48.5" height="48.5" filterUnits="userSpaceOnUse" color-interpolation-filters="sRGB">
            <feFlood flood-opacity="0" result="BackgroundImageFix"/>
            <feColorMatrix in="SourceAlpha" type="matrix" values="0 0 0 0 0 0 0 0 0 0 0 0 0 0 0 0 0 0 127 0"/>
            <feOffset dy="3"/>
            <feGaussianBlur stdDeviation="3"/>
            <feColorMatrix type="matrix" values="0 0 0 0 0.498039 0 0 0 0 0.498039 0 0 0 0 0.498039 0 0 0 0.3 0"/>
            <feBlend mode="normal" in2="BackgroundImageFix" result="effect1_dropShadow"/>
            <feBlend mode="normal" in="SourceGraphic" in2="effect1_dropShadow" result="shape"/>
        </filter>
    </defs>
</svg>