<svg width="25" height="25" viewBox="0 0 30 24" fill="none" xmlns="http://www.w3.org/2000/svg">
    <path fill-rule="evenodd" clip-rule="evenodd" d="M9.22744 23.8628C20.3121 23.8628 26.3776 14.9633 26.3776 7.25877C26.3776 7.0084 26.3776 6.75803 26.3658 6.50766C27.5413 5.68827 28.5639 4.65266 29.375 3.48047C28.2936 3.94707 27.1299 4.25434 25.9074 4.40229C27.1534 3.68532 28.1055 2.5359 28.5639 1.17025C27.4002 1.84169 26.1072 2.31967 24.7319 2.58142C23.627 1.44338 22.0636 0.737793 20.3356 0.737793C17.0091 0.737793 14.3055 3.35529 14.3055 6.57594C14.3055 7.03116 14.3642 7.475 14.4583 7.90745C9.45078 7.66846 5.0075 5.33548 2.03356 1.80755C1.51636 2.67246 1.22249 3.67394 1.22249 4.7437C1.22249 6.76941 2.29217 8.55614 3.90256 9.60314C2.91517 9.56899 1.98654 9.30724 1.17547 8.87479C1.17547 8.89755 1.17547 8.92031 1.17547 8.95445C1.17547 11.7768 3.25605 14.1439 6.00665 14.6788C5.5012 14.8154 4.97224 14.8836 4.41977 14.8836C4.03186 14.8836 3.65571 14.8495 3.29132 14.7812C4.05537 17.1028 6.28877 18.7871 8.92182 18.8327C6.85299 20.4031 4.2552 21.3363 1.43407 21.3363C0.952131 21.3363 0.470188 21.3136 0 21.2567C2.65656 22.8955 5.83033 23.8628 9.22744 23.8628Z" fill="#7F7F7F"/>
</svg>
